<?xml version="1.0" standalone="no"?>
<!DOCTYPE svg PUBLIC "-//W3C//DTD SVG 20010904//EN"
 "http://www.w3.org/TR/2001/REC-SVG-20010904/DTD/svg10.dtd">
<svg version="1.0" xmlns="http://www.w3.org/2000/svg"
 width="8000.000000pt" height="8000.000000pt" viewBox="0 0 8000.000000 8000.000000"
 preserveAspectRatio="xMidYMid meet">

<g transform="translate(0.000000,8000.000000) scale(0.100000,-0.100000)"
fill="#000000" stroke="none">
<path d="M39720 68053 c-973 -42 -1897 -259 -2765 -648 -306 -137 -434 -206
-1060 -570 -1140 -664 -1998 -1163 -2080 -1210 -49 -29 -367 -213 -705 -410
-338 -197 -781 -455 -985 -573 -203 -118 -543 -316 -755 -440 -212 -123 -484
-282 -605 -352 -252 -146 -1100 -640 -1595 -928 -611 -355 -949 -552 -1835
-1067 -291 -170 -651 -379 -800 -466 -148 -86 -502 -292 -785 -456 -283 -165
-668 -389 -855 -498 -421 -245 -741 -431 -861 -501 -107 -62 -1717 -998 -2199
-1279 -181 -106 -456 -265 -610 -355 -350 -204 -858 -499 -1255 -730 -168 -98
-555 -323 -860 -500 -659 -383 -757 -442 -960 -579 -1036 -696 -1891 -1661
-2458 -2773 -461 -904 -741 -1925 -799 -2913 -11 -173 -10 -21431 0 -21605 7
-118 31 -379 42 -450 2 -14 6 -50 10 -80 16 -132 69 -431 110 -615 417 -1877
1537 -3511 3135 -4572 215 -143 263 -171 1820 -1076 190 -110 435 -253 545
-317 110 -64 385 -224 610 -355 226 -131 446 -259 490 -285 44 -26 373 -218
730 -425 358 -208 853 -496 1100 -640 248 -144 493 -287 545 -317 52 -30 192
-111 310 -180 594 -346 1686 -981 2205 -1283 443 -258 1222 -711 1560 -908
171 -99 405 -235 520 -302 494 -288 1633 -951 2140 -1245 121 -71 490 -285
820 -477 330 -193 839 -488 1130 -658 586 -341 964 -561 1645 -957 250 -146
597 -347 770 -448 173 -101 518 -301 765 -445 624 -363 754 -433 1060 -570
843 -378 1758 -598 2680 -644 217 -11 686 -6 885 9 883 66 1733 280 2525 635
306 137 436 207 1060 570 248 144 592 344 765 445 173 101 520 302 770 448
250 146 619 360 820 477 1410 820 2535 1475 2750 1600 96 56 398 232 670 390
489 285 1088 633 1495 870 116 67 323 187 460 267 271 158 1171 681 1620 943
436 254 1547 900 2205 1283 118 69 258 150 310 180 52 30 298 173 545 317 248
144 619 360 825 480 206 120 551 320 765 445 215 125 543 316 730 425 187 109
462 268 610 355 149 86 410 238 580 337 1600 931 1569 913 1785 1056 1150 764
2083 1857 2644 3100 375 829 602 1739 653 2617 10 174 11 21432 0 21605 -58
989 -338 2009 -799 2913 -603 1183 -1529 2195 -2658 2904 -93 59 -578 342
-1660 971 -190 110 -435 253 -545 317 -110 64 -342 199 -515 300 -173 101
-463 269 -645 375 -508 296 -2219 1291 -2320 1350 -120 69 -444 258 -860 500
-187 109 -572 333 -855 498 -283 164 -641 372 -795 462 -443 258 -1222 711
-1560 908 -304 177 -392 227 -1065 619 -495 288 -1343 782 -1595 928 -121 70
-393 229 -605 352 -212 124 -551 322 -755 440 -203 118 -662 385 -1020 593
-357 208 -675 393 -705 410 -30 17 -401 233 -825 480 -423 246 -972 566 -1220
710 -626 364 -754 433 -1060 570 -795 356 -1638 568 -2525 635 -139 11 -664
19 -800 13z m600 -2334 c614 -42 1175 -179 1735 -423 180 -79 374 -181 669
-353 138 -80 346 -201 461 -268 596 -347 1660 -966 2140 -1245 121 -71 490
-285 820 -477 330 -193 839 -488 1130 -658 723 -420 1246 -725 1710 -995 215
-125 532 -309 705 -410 173 -101 518 -301 765 -445 248 -144 619 -360 825
-480 206 -120 497 -289 645 -375 149 -87 394 -229 545 -317 151 -88 453 -264
670 -390 651 -379 944 -550 1165 -678 427 -248 2112 -1228 2175 -1265 36 -21
272 -159 525 -306 253 -147 512 -297 575 -334 63 -37 365 -213 670 -390 305
-178 661 -385 790 -460 129 -75 460 -268 735 -428 541 -315 621 -370 723 -499
365 -459 267 -1162 -207 -1482 -31 -21 -180 -110 -331 -198 -524 -306 -878
-512 -1405 -818 -291 -170 -800 -465 -1130 -658 -330 -192 -699 -406 -820
-477 -271 -157 -1144 -665 -1595 -928 -678 -395 -761 -443 -1065 -619 -337
-196 -1114 -648 -1560 -908 -450 -262 -1561 -908 -2205 -1283 -118 -69 -258
-150 -310 -180 -52 -30 -297 -173 -545 -317 -247 -144 -619 -360 -825 -480
-206 -120 -580 -337 -830 -483 -250 -145 -552 -321 -670 -390 -118 -68 -352
-205 -520 -302 -625 -364 -918 -534 -1010 -588 -52 -30 -158 -91 -235 -136
-77 -46 -198 -116 -270 -158 -489 -284 -1704 -991 -2150 -1251 -494 -287 -724
-401 -1055 -525 -424 -158 -955 -272 -1390 -300 -225 -14 -757 -7 -895 13 -16
2 -70 9 -120 15 -449 56 -907 180 -1329 357 -122 52 -402 187 -491 238 -68 39
-1151 668 -1790 1040 -154 90 -417 243 -585 340 -389 226 -641 373 -755 440
-145 85 -510 297 -640 372 -66 38 -289 168 -495 288 -206 120 -454 264 -550
320 -96 56 -699 407 -1340 779 -641 373 -1277 744 -1415 824 -137 80 -398 231
-580 337 -757 441 -1258 733 -1555 905 -173 101 -562 327 -865 503 -302 176
-674 392 -825 480 -508 295 -635 369 -700 407 -36 21 -283 165 -550 320 -267
155 -525 306 -575 335 -85 50 -391 228 -1255 730 -206 120 -498 289 -647 376
-150 88 -397 231 -548 319 -151 88 -398 231 -547 319 -150 87 -496 288 -768
446 -916 533 -852 494 -950 582 -411 372 -429 1068 -37 1465 34 35 88 83 118
105 47 35 504 303 1494 878 116 67 444 258 730 425 286 167 633 368 770 448
269 156 739 430 845 492 67 39 1801 1048 2175 1265 221 128 514 299 1165 678
217 126 519 302 670 390 151 88 385 224 520 302 135 79 425 247 645 375 220
128 603 351 850 495 248 144 592 344 765 445 173 101 520 302 770 448 250 146
622 362 825 480 204 118 573 333 820 477 248 144 743 432 1100 640 358 208
729 424 825 480 96 56 398 232 670 390 272 158 673 391 890 518 217 126 508
295 645 375 138 80 342 199 455 265 566 331 1032 521 1575 642 468 104 983
145 1435 114z m-21440 -14975 c97 -21 226 -67 315 -111 64 -32 270 -151 1165
-673 168 -97 431 -251 585 -340 299 -174 584 -339 730 -425 145 -85 510 -297
640 -372 66 -38 289 -168 495 -288 206 -120 454 -264 550 -320 96 -56 699
-407 1340 -779 641 -373 1278 -744 1415 -824 138 -80 399 -231 580 -337 510
-297 1333 -776 1615 -940 140 -81 458 -266 705 -410 248 -144 619 -360 825
-480 384 -223 666 -387 825 -480 84 -49 455 -264 805 -468 85 -49 207 -120
270 -157 162 -95 1088 -634 1435 -835 160 -92 353 -205 430 -250 77 -45 433
-252 790 -460 598 -348 827 -481 1590 -925 149 -86 466 -271 705 -410 1653
-961 1534 -890 1646 -983 220 -181 378 -432 457 -725 l32 -117 0 -11155 0
-11155 -31 -116 c-68 -251 -178 -442 -355 -619 -281 -281 -662 -433 -1049
-417 -262 10 -441 72 -770 265 -177 104 -612 357 -1265 737 -717 417 -1000
581 -1465 852 -217 127 -519 302 -670 390 -329 191 -1494 869 -2205 1283 -280
163 -622 362 -760 442 -137 80 -527 306 -865 503 -778 453 -1033 601 -1345
783 -137 80 -356 207 -485 282 -129 76 -278 162 -330 192 -52 30 -441 257
-865 503 -423 246 -1017 592 -1320 768 -302 176 -674 392 -825 480 -338 197
-606 352 -725 422 -84 49 -455 264 -805 468 -85 49 -207 120 -270 157 -114 67
-1329 774 -2110 1228 -640 371 -765 447 -930 563 -403 282 -796 657 -1105
1054 -345 443 -631 983 -814 1535 -106 318 -199 755 -227 1065 -3 33 -9 98
-14 145 -4 47 -9 4607 -9 10149 -1 9109 0 10073 15 10169 74 499 433 920 929
1090 133 46 224 63 370 70 143 8 240 1 355 -24z m42800 2 c572 -125 1012 -581
1094 -1138 15 -96 16 -1060 15 -10169 0 -5542 -5 -10102 -9 -10149 -5 -47 -11
-112 -14 -145 -19 -206 -63 -457 -126 -710 -91 -368 -204 -675 -380 -1030
-201 -406 -420 -737 -720 -1086 -139 -162 -448 -461 -620 -602 -287 -234 -414
-315 -1230 -789 -781 -454 -1996 -1161 -2110 -1228 -63 -37 -185 -108 -270
-157 -350 -204 -721 -419 -805 -468 -302 -176 -1933 -1125 -2140 -1245 -82
-48 -454 -264 -825 -480 -371 -216 -718 -418 -770 -448 -52 -30 -201 -116
-330 -192 -260 -152 -536 -312 -1135 -660 -220 -128 -602 -351 -850 -495 -247
-144 -565 -329 -705 -410 -140 -82 -484 -282 -765 -445 -711 -414 -1876 -1092
-2205 -1283 -151 -88 -453 -263 -670 -390 -465 -271 -748 -435 -1465 -852
-665 -387 -1091 -635 -1265 -737 -344 -202 -541 -266 -820 -266 -275 -1 -540
80 -775 236 -337 223 -549 552 -605 938 -6 46 -10 3819 -10 11145 0 9959 2
11085 16 11159 54 287 185 541 379 735 153 154 12 67 1840 1130 319 186 774
450 1010 588 237 137 525 305 640 372 116 67 707 411 1315 765 608 354 1256
730 1440 838 184 107 376 218 425 247 50 29 308 180 575 335 267 155 514 299
550 320 89 52 355 207 800 465 206 120 578 336 825 480 248 144 592 344 765
445 289 168 685 398 1555 905 182 106 443 257 580 337 138 80 774 451 1415
824 641 372 1244 723 1340 779 96 56 344 200 550 320 206 120 454 264 550 320
96 56 274 159 395 230 225 131 308 179 640 372 105 61 285 165 400 233 1257
732 1561 908 1630 943 139 69 313 120 465 135 100 9 317 -2 410 -22z"/>
<path d="M39670 55883 c-128 -6 -418 -34 -555 -54 -1232 -175 -2213 -730
-2547 -1440 -110 -232 -149 -519 -104 -751 102 -525 524 -993 1206 -1334 960
-480 2280 -626 3477 -384 1408 285 2356 1066 2342 1931 -8 537 -351 1024 -992
1412 -494 299 -1218 525 -1897 591 -30 3 -104 11 -165 16 -107 11 -634 20
-765 13z"/>
<path d="M21260 45101 c-344 -63 -628 -250 -821 -540 -116 -172 -185 -330
-240 -550 -62 -242 -73 -347 -73 -676 0 -324 14 -473 70 -753 214 -1062 817
-2164 1600 -2922 875 -848 1830 -1170 2509 -845 427 204 709 659 791 1277 19
144 25 493 11 670 -25 330 -105 705 -232 1083 -541 1622 -1827 2996 -3032
3241 -178 36 -431 42 -583 15z"/>
<path d="M31706 39139 c-636 -68 -1074 -543 -1200 -1299 -29 -172 -35 -262
-32 -520 3 -294 19 -443 76 -730 258 -1291 1104 -2626 2120 -3346 904 -640
1786 -702 2322 -162 565 569 632 1725 173 2963 -375 1007 -1049 1937 -1832
2523 -413 310 -875 514 -1283 567 -83 10 -264 13 -344 4z"/>
<path d="M26510 36385 c-8 -2 -49 -9 -90 -15 -278 -45 -552 -201 -733 -417
-200 -240 -324 -541 -383 -928 -29 -187 -27 -682 4 -898 109 -769 419 -1563
888 -2273 541 -820 1266 -1466 1954 -1738 275 -108 478 -150 735 -150 193 0
275 11 430 61 541 173 889 705 952 1459 12 134 8 473 -6 609 -62 591 -248
1194 -557 1805 -593 1173 -1533 2088 -2455 2391 -197 64 -346 90 -549 94 -96
2 -182 2 -190 0z"/>
<path d="M21320 33223 c-65 -6 -233 -45 -304 -70 -429 -154 -728 -525 -860
-1064 -91 -377 -94 -857 -6 -1331 292 -1588 1444 -3190 2702 -3759 154 -69
350 -133 504 -165 170 -34 414 -43 554 -20 405 66 716 284 920 645 234 413
311 1010 214 1671 -136 929 -608 1942 -1283 2750 -129 155 -419 449 -565 574
-648 553 -1297 819 -1876 769z"/>
<path d="M31630 27243 c-441 -67 -777 -317 -985 -732 -133 -267 -210 -646
-210 -1041 0 -1181 627 -2602 1580 -3579 573 -587 1180 -947 1770 -1047 149
-26 399 -23 532 5 262 55 458 159 636 339 207 207 343 474 421 823 67 300 78
677 30 1059 -210 1675 -1483 3481 -2835 4024 -281 112 -497 157 -752 155 -89
-1 -173 -3 -187 -6z"/>
<path d="M58300 45110 c-716 -86 -1523 -622 -2186 -1451 -643 -803 -1077
-1786 -1203 -2722 -32 -234 -35 -634 -7 -845 81 -617 364 -1073 791 -1277 270
-129 595 -158 945 -83 205 43 494 156 705 275 785 443 1508 1252 1990 2228
279 564 443 1089 522 1670 13 100 17 199 17 430 0 329 -11 434 -73 676 -55
220 -124 378 -240 550 -242 362 -625 562 -1069 558 -70 -1 -156 -5 -192 -9z"/>
<path d="M53140 36380 c-359 -46 -746 -203 -1120 -453 -242 -162 -439 -326
-670 -557 -874 -875 -1492 -2130 -1611 -3275 -14 -136 -18 -475 -6 -609 67
-798 456 -1349 1047 -1487 176 -41 435 -47 620 -14 906 163 1898 990 2580
2150 113 193 302 578 379 770 168 423 276 816 333 1222 30 217 33 713 4 898
-115 747 -486 1207 -1081 1340 -82 19 -377 28 -475 15z"/>
<path d="M47975 27243 c-611 -94 -1212 -436 -1790 -1018 -885 -892 -1498
-2152 -1606 -3305 -27 -295 -8 -661 47 -909 77 -345 206 -601 407 -808 186
-192 380 -297 650 -354 135 -29 385 -31 532 -5 599 105 1196 458 1770 1047
883 906 1502 2221 1572 3342 47 745 -122 1320 -493 1678 -158 152 -332 247
-559 306 -88 22 -123 26 -300 28 -110 2 -213 1 -230 -2z"/>
</g>
</svg>
