<?xml version="1.0" standalone="no"?>
<!DOCTYPE svg PUBLIC "-//W3C//DTD SVG 20010904//EN"
 "http://www.w3.org/TR/2001/REC-SVG-20010904/DTD/svg10.dtd">
<svg version="1.0" xmlns="http://www.w3.org/2000/svg"
 width="1920.000000pt" height="960.000000pt" viewBox="0 0 1920.000000 960.000000"
 preserveAspectRatio="xMidYMid meet">

<g transform="translate(0.000000,960.000000) scale(0.100000,-0.100000)"
fill="#000000" stroke="none">
<path d="M10016 8355 c-3 -9 -6 -83 -6 -165 l0 -149 -47 -6 c-27 -4 -88 -17
-137 -31 -374 -103 -755 -471 -1220 -1175 -75 -113 -100 -153 -157 -247 -9
-15 -59 -98 -113 -185 -53 -86 -96 -159 -96 -162 0 -2 -19 -35 -41 -72 -23
-38 -82 -140 -132 -228 -203 -362 -367 -657 -367 -661 0 -2 -10 -21 -23 -42
-13 -20 -37 -62 -54 -92 -857 -1564 -1399 -2281 -2000 -2643 -281 -170 -726
-315 -1173 -381 -477 -71 -1053 -113 -1685 -123 -431 -6 -446 -8 -465 -59 -16
-42 -12 -64 19 -95 l29 -29 174 0 c95 0 299 5 453 10 1657 58 2383 231 3017
719 110 85 391 367 508 511 248 304 610 830 773 1120 10 19 47 82 82 140 70
118 235 404 284 494 18 32 46 81 62 108 16 27 29 51 29 54 0 3 15 31 34 62 18
32 87 154 151 272 65 118 140 252 167 298 26 45 48 85 48 88 0 3 15 31 34 62
55 92 146 253 146 257 0 2 32 56 70 120 39 64 70 118 70 120 0 8 240 391 338
540 301 455 611 797 857 948 107 66 274 127 345 127 20 0 20 -32 20 -3055 l0
-3055 -3939 0 c-3431 0 -3940 -2 -3951 -15 -6 -8 -9 -23 -5 -35 l6 -20 7927 2
7927 3 3 24 c2 13 -2 28 -10 32 -7 5 -1785 9 -3950 9 l-3938 0 0 3055 0 3055
23 0 c73 0 252 -65 348 -127 207 -132 450 -382 693 -713 174 -237 420 -627
640 -1015 38 -66 83 -145 101 -175 31 -53 256 -457 318 -570 52 -96 318 -572
357 -640 349 -606 553 -928 797 -1260 195 -264 238 -317 397 -490 453 -491
912 -741 1636 -889 80 -16 163 -31 185 -34 22 -3 128 -17 235 -30 468 -61
1218 -106 1756 -107 178 0 182 0 207 24 14 13 29 36 33 50 8 34 -22 83 -59 96
-18 6 -135 10 -281 10 -377 0 -806 21 -1261 61 -596 52 -991 130 -1353 265
-559 209 -972 583 -1510 1367 -56 82 -102 151 -102 154 0 3 -13 22 -30 43 -16
21 -30 41 -30 45 0 3 -13 25 -29 48 -35 52 -211 338 -211 343 0 3 -11 21 -24
42 -49 78 -286 494 -399 702 -17 30 -41 72 -54 92 -13 21 -23 40 -23 42 0 2
-17 35 -38 73 -22 37 -76 136 -122 218 -45 83 -98 175 -116 207 -19 31 -34 58
-34 61 0 6 -26 52 -279 489 -428 742 -830 1276 -1147 1525 -97 76 -110 85
-196 135 -108 63 -212 102 -330 123 l-98 17 -2 162 -3 161 -26 3 c-17 2 -29
-3 -33 -13z"/>
</g>
</svg>
