<?xml version="1.0" standalone="no"?>
<!DOCTYPE svg PUBLIC "-//W3C//DTD SVG 20010904//EN"
 "http://www.w3.org/TR/2001/REC-SVG-20010904/DTD/svg10.dtd">
<svg version="1.0" xmlns="http://www.w3.org/2000/svg"
 width="551.000000pt" height="600.000000pt" viewBox="0 0 551.000000 600.000000"
 preserveAspectRatio="xMidYMid meet">

<g transform="translate(0.000000,600.000000) scale(0.100000,-0.100000)"
fill="#000000" stroke="none">
<path d="M2781 5984 c-133 -35 -247 -132 -307 -259 -31 -64 -37 -89 -42 -164
-3 -54 0 -109 8 -142 39 -168 181 -312 348 -351 l52 -13 0 -437 0 -437 -47 -6
c-194 -26 -368 -112 -506 -251 -105 -105 -187 -246 -225 -385 l-17 -64 -485
-31 c-267 -18 -515 -34 -552 -37 l-67 -4 -15 51 c-30 102 -119 213 -217 269
-107 61 -255 78 -371 43 -112 -34 -230 -132 -282 -235 -136 -268 -4 -583 282
-671 174 -54 384 7 496 144 47 58 94 159 102 219 4 26 10 50 15 53 7 4 1005
73 1065 74 7 0 13 -36 17 -92 21 -317 212 -597 500 -733 75 -36 210 -75 259
-75 19 0 28 -5 28 -16 0 -9 -40 -208 -89 -442 -49 -235 -117 -560 -151 -722
-34 -162 -63 -301 -66 -307 -2 -8 -20 -13 -42 -13 -108 0 -246 -64 -327 -152
-182 -196 -171 -489 25 -672 200 -187 525 -158 692 61 63 84 90 158 96 265 10
196 -88 358 -274 451 l-52 26 14 63 c7 35 78 373 158 752 88 418 150 692 158
697 7 5 27 9 44 9 51 0 185 38 261 75 90 42 152 84 221 149 43 40 55 47 63 36
5 -8 68 -121 141 -250 72 -129 205 -365 294 -524 l163 -289 -56 -61 c-141
-152 -169 -348 -78 -534 87 -174 259 -273 455 -259 144 10 275 86 357 205 195
286 24 674 -323 733 -61 11 -84 10 -159 -5 -48 -9 -89 -15 -91 -14 -6 7 -624
1108 -624 1114 0 3 23 51 50 107 70 140 94 259 87 417 -7 130 -31 230 -81 332
l-33 66 541 541 c298 297 544 543 548 547 4 3 31 -8 60 -25 269 -153 614 -7
693 294 84 323 -202 637 -530 585 -255 -41 -436 -284 -397 -533 7 -47 24 -98
50 -149 l39 -76 -537 -537 -537 -537 -67 66 c-127 127 -291 212 -468 244 l-88
16 0 435 0 436 53 13 c158 37 283 153 336 310 29 84 29 210 0 295 -79 237
-331 375 -568 311z m240 -129 c132 -47 228 -182 229 -321 1 -206 -151 -359
-356 -358 -129 1 -251 80 -311 202 -24 50 -28 69 -28 147 0 78 4 97 28 147 66
135 204 215 346 201 29 -2 71 -11 92 -18z m2169 -319 c170 -86 242 -289 163
-457 -56 -119 -161 -194 -287 -206 -177 -16 -342 111 -375 289 -25 137 41 287
156 355 77 45 112 54 203 50 69 -3 95 -9 140 -31z m-2105 -1499 c214 -61 387
-201 480 -390 63 -128 79 -198 79 -337 0 -168 -42 -299 -138 -433 -267 -375
-805 -419 -1131 -92 -197 196 -268 479 -189 746 64 213 249 407 466 485 123
44 316 54 433 21z m-2515 -387 c61 -17 143 -73 182 -125 109 -144 93 -341 -38
-465 -77 -73 -129 -94 -239 -94 -78 0 -98 3 -145 26 -123 60 -203 183 -204
312 0 88 22 155 72 221 38 50 120 108 177 124 41 13 153 13 195 1z m3997
-2062 c29 -10 74 -39 100 -63 191 -171 144 -473 -92 -582 -86 -40 -194 -39
-282 1 -143 65 -228 220 -203 370 13 82 42 139 100 196 100 101 238 129 377
78z m-1934 -795 c84 -38 160 -123 187 -209 25 -83 25 -135 0 -218 -28 -88
-103 -171 -192 -211 -156 -70 -348 -11 -436 135 -44 74 -55 121 -50 210 14
245 264 394 491 293z"/>
</g>
</svg>
